# xmcd
#
# Track frame offsets:
#	150
#	18975
#	41455
#	63105
#	82121
#	106493
#
# Disc length: 1619 seconds
#
# Revision: 1
# Processed by: cddbd v1.5.2PL0 Copyright (c) Steve Scherf et al.
# Submitted via: audiograbber 1.83.01
#
DISCID=42065106
DTITLE=4 Sale - Blues alive! - Blackest Blue
DYEAR=2011
DGENRE=Blues
TTITLE0=Heartattack and Vine - Indian Reservation
TTITLE1=Crazy hazy little Thing
TTITLE2=Devil´s golden Hair
TTITLE3=Peter Gunn Theme
TTITLE4=Rock me Baby
TTITLE5=You're the One I need
EXTD=www.blues-alive.com\n4sale@blues-alive.com
EXTT0=by Tom Waits - Don Fardon
EXTT1=by 4Sale
EXTT2=by 4 Sale
EXTT3=by Henry Mancini
EXTT4=by B.B. King
EXTT5=by Watermelon Slim and The Workers
PLAYORDER=
